<svg class="download" width="15" height="15" viewBox="0 0 15 15" fill="none" xmlns="http://www.w3.org/2000/svg">
  <path d="M12.1576 9.55936V12.9859H1.95998V9.55936H0V13.9931C0 14.549 0.438148 14.9998 0.981451 14.9998H13.1362C13.679 14.9998 14.1176 14.5495 14.1176 13.9931V9.55936H12.1576Z" fill="#0066ff"></path>
  <path d="M6.87916 9.21973L4.07307 5.73469C4.07307 5.73469 3.64612 5.32038 4.1091 5.32038C4.57207 5.32038 5.69032 5.32038 5.69032 5.32038C5.69032 5.32038 5.69032 5.04168 5.69032 4.61187C5.69032 3.38647 5.69032 1.15634 5.69032 0.24718C5.69032 0.24718 5.62752 0 5.98972 0C6.35485 0 7.95408 0 8.21551 0C8.47645 0 8.47061 0.208152 8.47061 0.208152C8.47061 1.0898 8.47061 3.39698 8.47061 4.58235C8.47061 4.96663 8.47061 5.21581 8.47061 5.21581C8.47061 5.21581 9.36735 5.21581 9.93013 5.21581C10.4919 5.21581 10.0689 5.64962 10.0689 5.64962C10.0689 5.64962 7.68146 8.907 7.34847 9.24875C7.10895 9.49643 6.87916 9.21973 6.87916 9.21973Z" fill="#0066ff"></path>
</svg>
